Results
version=1
nRows=7
nColumns=85
inDegrees=yes
endheader
time	thorax_sagittal	thorax_frontal	thorax_horizontal	thorax_transx	thorax_transy	thorax_transz	cervix_sagittal	cervix_frontal	cervix_horizontal	caput_sagittal	caput_frontal	caput_horizontal	abdomen_sagittal	abdomen_frontal	abdomen_horizontal	cauda_sagittal	cauda_frontal	cauda_horizontal	left_r_m_superioris_sagittal	left_r_m_superioris_frontal	left_r_m_superioris_horizontal	left_r_m_superioris_transx	left_r_m_superioris_transy	left_r_m_superioris_transz	left_r_deltoidea_sagittal	left_r_deltoidea_frontal	left_r_deltoidea_horizontal	left_r_cubitalis_sagittal	left_r_cubitalis_frontal	left_r_cubitalis_horizontal	left_r_carpalis_sagittal	left_r_carpalis_frontal	left_r_carpalis_horizontal	left_r_forepaw_sagittal	left_r_forepaw_frontal	left_r_forepaw_horizontal	right_r_m_superioris_sagittal	right_r_m_superioris_frontal	right_r_m_superioris_horizontal	right_r_m_superioris_transx	right_r_m_superioris_transy	right_r_m_superioris_transz	right_r_deltoidea_sagittal	right_r_deltoidea_frontal	right_r_deltoidea_horizontal	right_r_cubitalis_sagittal	right_r_cubitalis_frontal	right_r_cubitalis_horizontal	right_r_carpalis_sagittal	right_r_carpalis_frontal	right_r_carpalis_horizontal	right_r_forepaw_sagittal	right_r_forepaw_frontal	right_r_forepaw_horizontal	m_inferioris_sagittal	m_inferioris_frontal	m_inferioris_horizontal	m_inferioris_transx	m_inferioris_transy	m_inferioris_transz	left_r_coxae_sagittal	left_r_coxae_frontal	left_r_coxae_horizontal	left_r_genus_sagittal	left_r_genus_frontal	left_r_genus_horizontal	left_r_talocruralis_sagittal	left_r_talocruralis_frontal	left_r_talocruralis_horizontal	left_r_hindpaw_sagittal	left_r_hindpaw_frontal	left_r_hindpaw_horizontal	right_r_coxae_sagittal	right_r_coxae_frontal	right_r_coxae_horizontal	right_r_genus_sagittal	right_r_genus_frontal	right_r_genus_horizontal	right_r_talocruralis_sagittal	right_r_talocruralis_frontal	right_r_talocruralis_horizontal	right_r_hindpaw_sagittal	right_r_hindpaw_frontal	right_r_hindpaw_horizontal
      5.53800000	    -96.47338150	      5.28435522	    -18.15641691	     -0.81483819	      0.28389903	     -4.06015142	     -5.08977896	      4.60525255	    -14.47324855	     21.38446122	     -2.95452146	    -26.63831592	      7.80948147	    -15.34011791	    -15.78545264	      2.92716412	     -9.07427519	      4.54575319	    -26.62509119	    -32.69928913	     -9.09532165	      0.02732815	     -0.18488444	      0.10253339	    100.89968896	     -3.59247196	    -15.13385710	    -51.95254371	     27.05098523	     -0.19665137	    -26.67284839	     -1.04928337	      0.80000000	      0.00000000	      0.00000000	      0.00000000	    -42.32264844	     36.60296776	      6.89296867	     -0.03576915	     -0.17640617	      0.08958202	     82.45962232	     -7.16416030	     24.61824848	    -72.66377348	    -17.90453584	      5.66031287	    -17.51348570	     -7.53587032	      0.80000000	      0.00000000	      0.00000000	      0.00000000	     31.10482803	     17.30849853	     -5.66619188	      0.01229500	     -0.06470822	      0.02020191	    -66.10379327	     -7.16967267	     -2.86620944	    106.20937874	      7.65305143	     -2.08205886	    -58.71875252	      5.16575783	      2.30000000	      0.00000000	      0.00000000	      0.00000000	    -92.34615503	      2.41618935	     -0.51668988	     94.78152141	     -5.85827284	      3.43310231	    -67.38336690	     -0.86742077	      2.30000000	      0.00000000	      0.00000000	      0.00000000
      5.55466667	    -96.05293068	      4.96201507	    -18.65739728	     -0.82172164	      0.28149217	     -4.04144721	     -7.29828307	      4.60051470	    -14.88260908	     20.83049296	     -2.71580177	    -25.57837391	      8.85878835	    -15.13197278	    -15.47224621	      2.66275053	     -8.66349116	      3.63569138	    -28.25192200	    -32.03827299	     -9.84146623	      0.02747138	     -0.18362155	      0.10214579	    103.55536860	     -4.21435678	    -14.66151501	    -51.92680339	     26.86077606	      0.26996338	    -21.60311510	     -1.86435505	      0.80000000	      0.00000000	      0.00000000	      0.00000000	    -40.85130634	     35.96334866	      8.41100166	     -0.03694343	     -0.17620659	      0.09195550	     86.32523167	     -5.67628991	     24.34233348	    -77.35060511	    -18.57132411	      3.95210894	    -14.72691199	     -1.16241878	      0.80000000	      0.00000000	      0.00000000	      0.00000000	     30.70877649	     17.22645567	     -6.73060012	      0.01084272	     -0.06393904	      0.02006442	    -70.96364129	     -6.78472523	     -3.62590848	    109.22699957	      6.44321829	     -3.04643990	    -66.40445241	      6.69567139	      2.30000000	      0.00000000	      0.00000000	      0.00000000	    -91.92613673	      1.42046109	     -0.89460671	     95.98252789	     -6.20121220	      3.75870037	    -65.66262055	     -1.20358714	      2.30000000	      0.00000000	      0.00000000	      0.00000000
      5.57133333	    -95.50447024	      5.01808919	    -19.64460820	     -0.82872431	      0.27896270	     -4.02225954	     -9.42877699	      4.95234452	    -14.13338057	     21.36496679	     -2.98149518	    -25.47934049	     10.08942503	    -15.07303783	    -14.14512212	      2.36783445	     -8.37056339	      2.17498050	    -30.04708817	    -31.33193238	     -9.78283043	      0.02841688	     -0.18200651	      0.10270707	    108.91108032	     -3.25935550	    -11.62417718	    -56.03940215	     24.97061947	      0.84324191	     -9.13069960	     -1.83034646	      0.80000000	      0.00000000	      0.00000000	      0.00000000	    -38.61546577	     35.11819604	      9.42949808	     -0.03671979	     -0.17710156	      0.09372693	     87.73056947	     -4.71337522	     24.90315441	    -80.31863616	    -19.55182556	      3.19854473	    -16.93726699	      1.41384526	      0.80000000	      0.00000000	      0.00000000	      0.00000000	     30.19401607	     16.77409417	     -8.22456632	      0.00987255	     -0.06341574	      0.02122915	    -76.35059691	     -6.65429348	     -4.13438159	    111.22791950	      5.88080515	     -2.90377130	    -69.48818970	      6.69421498	      2.30000000	      0.00000000	      0.00000000	      0.00000000	    -90.64374419	      0.15653657	     -1.05082843	     96.15625266	     -6.30844612	      4.18660112	    -64.80939613	     -1.66369549	      2.30000000	      0.00000000	      0.00000000	      0.00000000
      5.58800000	    -95.17871789	      5.03021167	    -20.49436787	     -0.83551691	      0.27742585	     -4.00317323	    -10.21807860	      5.81398240	    -13.66073749	     20.24101424	     -2.45856550	    -25.59107565	     11.24869929	    -14.84740513	    -12.97031930	      2.11707804	     -7.92750410	      0.77948730	    -31.50215478	    -31.96878004	     -9.29326104	      0.02798830	     -0.18108233	      0.10208922	    110.71988479	     -2.38079586	    -10.62794430	    -63.02417393	     27.93103379	      3.67176916	     16.17529083	    -13.51325271	      0.80000000	      0.00000000	      0.00000000	      0.00000000	    -36.58717033	     34.82690253	      9.82689824	     -0.03651990	     -0.17757953	      0.09445315	     90.30852521	     -4.36705607	     25.04018202	    -82.34789365	    -19.90086536	      3.24824193	    -19.16085779	      1.43432680	      0.80000000	      0.00000000	      0.00000000	      0.00000000	     29.67372669	     16.49568717	     -9.74037187	      0.00870289	     -0.06317445	      0.02212587	    -82.44002324	     -7.52151501	     -4.67747047	    113.09229627	      5.31363121	     -2.65633728	    -71.88709670	      6.53986155	      2.30000000	      0.00000000	      0.00000000	      0.00000000	    -88.91972307	     -1.65084387	     -1.17281670	     96.04560623	     -6.41653929	      4.38371618	    -64.31067649	     -1.88015507	      2.30000000	      0.00000000	      0.00000000	      0.00000000
      5.60466667	    -95.03715913	      4.74157560	    -21.11696886	     -0.84076230	      0.27666956	     -3.98461456	    -11.27425121	      6.11147910	    -13.50706234	     19.50120283	     -2.11866390	    -25.04309163	     12.22959322	    -14.66712403	    -12.18560964	      1.65111740	     -7.55365963	     -0.45372231	    -32.36886663	    -32.18232269	     -9.14235352	      0.02732748	     -0.18080210	      0.10254979	    107.54223007	     -2.73668038	    -11.84917749	    -69.43660670	     33.25880969	      7.57761541	     41.24726997	    -19.25097148	      0.80000000	      0.00000000	      0.00000000	      0.00000000	    -34.42127129	     35.08665361	     10.05716911	     -0.03700134	     -0.17796921	      0.09623260	     92.08759524	     -4.13861177	     25.11033671	    -83.45640467	    -20.09659092	      3.15754510	    -21.23321606	      1.86252087	      0.80000000	      0.00000000	      0.00000000	      0.00000000	     29.03425377	     16.22905355	    -11.15425438	      0.00742304	     -0.06289430	      0.02322751	    -86.87401278	     -8.29626653	     -5.00091889	    112.66995160	      5.12052197	     -2.36491340	    -74.60977057	      6.33748617	      2.30000000	      0.00000000	      0.00000000	      0.00000000	    -86.34836617	     -1.59250292	     -1.44052412	     95.55541810	     -6.62947044	      5.04248360	    -63.80445194	     -2.60285034	      2.30000000	      0.00000000	      0.00000000	      0.00000000
      5.62133333	    -95.44441137	      4.31989932	    -21.75717257	     -0.84564280	      0.27459982	     -3.96581272	    -11.58243775	      6.44585578	    -13.10916108	     18.19667892	     -1.52088671	    -24.24874402	     13.82423533	    -14.49179143	    -11.77333970	      1.09678176	     -7.05999388	     -1.33419424	    -34.19364919	    -32.95791827	     -9.27138912	      0.02651529	     -0.18023764	      0.10051746	    106.50875561	     -3.10593129	    -12.59589966	    -75.21910168	     37.04480956	     11.47230078	     55.27012757	    -18.58509201	      0.80000000	      0.00000000	      0.00000000	      0.00000000	    -32.45282855	     35.17713154	     11.06710610	     -0.03722263	     -0.17870783	      0.09873702	     92.55326979	     -3.12136115	     25.41035247	    -83.82792197	    -20.44993539	      3.06392990	    -22.78877219	      2.23001572	      0.80000000	      0.00000000	      0.00000000	      0.00000000	     28.35781712	     16.24743762	    -12.31100654	      0.00541527	     -0.06315669	      0.02395155	    -91.87813013	     -9.92305485	     -5.08594204	    111.90172627	      5.23911026	     -1.92392900	    -74.60560015	      5.88424969	      2.30000000	      0.00000000	      0.00000000	      0.00000000	    -84.52067864	     -3.23987862	     -0.90746243	     95.24030090	     -6.05984636	      5.55148169	    -62.72614072	     -3.14673068	      2.30000000	      0.00000000	      0.00000000	      0.00000000
      5.63800000	    -95.26550842	      4.56771546	    -21.99659548	     -0.85230368	      0.27579369	     -3.94999398	    -11.06115990	      7.13702804	    -12.99521308	     16.92874368	     -0.93155578	    -24.53946937	     13.58506725	    -14.24762484	    -11.43055895	      1.14990938	     -6.91659600	     -2.30559679	    -35.21354709	    -32.25822346	     -9.53980721	      0.02684634	     -0.18033088	      0.10127505	    102.66286841	     -3.43148928	    -12.29679060	    -82.64605358	     40.06219069	     18.45000306	     69.46407524	    -13.04565612	      0.80000000	      0.00000000	      0.00000000	      0.00000000	    -30.89418962	     35.33650323	     11.38017802	     -0.03739514	     -0.17930885	      0.09869316	     93.60837227	     -2.77931105	     25.93461025	    -83.57302151	    -21.00725183	      2.83980012	    -23.92831731	      2.90370894	      0.80000000	      0.00000000	      0.00000000	      0.00000000	     28.28003337	     15.93619751	    -13.22311205	      0.00510599	     -0.06362116	      0.02544458	    -96.15921684	    -11.47671189	     -5.10250226	    110.04794452	      5.30760826	     -1.90727013	    -73.33000556	      5.83553251	      2.30000000	      0.00000000	      0.00000000	      0.00000000	    -81.96964710	     -4.48633490	     -0.46205333	     94.96848689	     -5.65518732	      5.36689404	    -62.13585848	     -2.92138648	      2.30000000	      0.00000000	      0.00000000	      0.00000000
